# xmcd CD database file
#
# Track frame offsets:
#	150
#	14105
#	25908
#	38649
#	53205
#	64468
#	78646
#	92055
#	107053
#	121233
#	135274
#	162835
#	194062
#	208135
#	245938
#
# Disc length: 3471 seconds
#
# Revision: 0
# Processed by: cddbd v1.4PL0 Copyright (c) Steve Scherf et al.
# Submitted via: CDex 1.50beta10
#
DISCID=dc0d8d0f
DTITLE=Lester Young - Midnite Jazz And Blues Collection
DYEAR=1900
DGENRE=Jazz
TTITLE0=Fat Hat Blues
TTITLE1=Tenor King
TTITLE2=Swingin' At Milts
TTITLE3=It's Only A Paper Moon
TTITLE4=Sunday
TTITLE5=Sad Eyes
TTITLE6=Big Eyes Blues
TTITLE7=Jumpin' With Symphony Sid
TTITLE8=Sax-A-Plenty
TTITLE9=Sunny Side Of The Street
TTITLE10=Don't You Know
TTITLE11=Love Me Or Leave Me
TTITLE12=To The Best Of 'Kats'
TTITLE13=A Foggy Day In London Town
TTITLE14=Takin' A Chance On Love
EXTD=
EXTT0=
EXTT1=
EXTT2=
EXTT3=
EXTT4=
EXTT5=
EXTT6=
EXTT7=
EXTT8=
EXTT9=
EXTT10=
EXTT11=
EXTT12=
EXTT13=
EXTT14=
PLAYORDER=
